<svg id="Layer_5" enable-background="new 0 0 64 64" height="512" viewBox="0 0 64 64" width="512" xmlns="http://www.w3.org/2000/svg"><g><g><g><path d="m48.4 17.8c-.55.73-1.42 1.2-2.4 1.2-1.49 0-2.73-1.09-2.96-2.51-.03-.16-.04-.32-.04-.49 0-1.66 1.34-3 3-3s3 1.34 3 3c0 .68-.23 1.3-.6 1.8z" fill="#fcd770"/></g><g><path d="m36.96 17.51c.03.16.04.32.04.49 0 1.66-1.34 3-3 3s-3-1.34-3-3c0-.27.04-.54.11-.79.34-1.28 1.5-2.21 2.89-2.21 1.49 0 2.73 1.09 2.96 2.51z" fill="#fcd770"/></g><g><path d="m22 12c0 .91-.12 1.79-.35 2.63-1.16 4.25-5.04 7.37-9.65 7.37-5.52 0-10-4.48-10-10s4.48-10 10-10 10 4.48 10 10z" fill="#fcd770"/></g><g><path d="m54 36h8v26h-8z" fill="#ff826e"/></g><g><path d="m42 27h8v35h-8z" fill="#ff826e"/></g><g><path d="m30 32h8v30h-8z" fill="#ff826e"/></g><g><path d="m26 26v36h-8v-1.52c2.41-1.61 4-4.36 4-7.48 0-1.95-.63-3.84-1.8-5.4l-4.2-5.6 3.17-3.17c.53-.53.83-1.25.83-2 0-1.28-.86-2.37-2.03-2.71l.03-.12v-8z" fill="#ff826e"/></g><g><path d="m13.92 34h3.25c.28 0 .55.04.8.12 1.17.34 2.03 1.43 2.03 2.71 0 .75-.3 1.47-.83 2l-3.17 3.17h-8l-1.9-6.65c-.07-.23-.1-.47-.1-.72 0-.73.3-1.38.77-1.86.48-.47 1.13-.77 1.86-.77h2.74c1.23 0 2.27.85 2.55 2z" fill="#a0d468"/></g><g><path d="m8 42h8l4.2 5.6c1.17 1.56 1.8 3.45 1.8 5.4 0 3.12-1.59 5.87-4 7.48-1.43.96-3.15 1.52-5 1.52h-2c-2.48 0-4.74-1.01-6.36-2.64-1.63-1.62-2.64-3.88-2.64-6.36 0-1.95.63-3.84 1.8-5.4z" fill="#b4dd7f"/></g></g><g><path d="m11 16.855v2.145h2v-2.145c1.155-.366 2-1.435 2-2.709 0-1.088-.604-2.066-1.578-2.553l-1.949-.975c-.292-.145-.473-.438-.473-.764 0-.471.384-.854.854-.854h.291c.471 0 .855.383.855.854v.146h2v-.146c0-1.274-.845-2.343-2-2.709v-2.145h-2v2.145c-1.155.366-2 1.435-2 2.709 0 1.088.604 2.066 1.578 2.553l1.949.975c.292.145.473.438.473.764 0 .471-.384.854-.854.854h-.291c-.471 0-.855-.383-.855-.854v-1.146h-2v1.146c0 1.274.845 2.343 2 2.709z"/><path d="m13 47.145v-2.145h-2v2.145c-1.155.366-2 1.435-2 2.709 0 1.088.604 2.065 1.578 2.553l1.949.975c.292.145.473.438.473.764 0 .47-.384.854-.854.854h-.291c-.471 0-.855-.384-.855-.854v-1.146h-2v1.146c0 1.275.845 2.344 2 2.709v2.145h2v-2.145c1.155-.366 2-1.435 2-2.709 0-1.088-.604-2.065-1.578-2.553l-1.949-.975c-.292-.145-.473-.438-.473-.764 0-.47.384-.854.854-.854h.291c.471 0 .855.384.855.854v.146h2v-.146c0-1.274-.845-2.343-2-2.709z"/><path d="m12 23c4.712 0 8.729-2.984 10.293-7.156l7.712 2.103c0 .018-.005.035-.005.053 0 2.206 1.794 4 4 4 2.085 0 3.782-1.609 3.964-3.647l4.387-.731c.624 1.398 2.021 2.378 3.649 2.378.943 0 1.798-.341 2.483-.889l11.048 8.286-3.695.616.328 1.973 6.986-1.165-1.164-6.986-1.973.329.59 3.539-10.908-8.181c.195-.47.305-.983.305-1.522 0-2.206-1.794-4-4-4-2.085 0-3.782 1.609-3.964 3.647l-4.387.731c-.624-1.398-2.021-2.378-3.649-2.378-1.483 0-2.764.82-3.455 2.021l-7.723-2.106c.11-.623.178-1.261.178-1.915 0-6.065-4.935-11-11-11s-11 4.935-11 11 4.935 11 11 11zm34-9c1.103 0 2 .897 2 2s-.897 2-2 2-2-.897-2-2 .897-2 2-2zm-12 2c1.103 0 2 .897 2 2s-.897 2-2 2-2-.897-2-2 .897-2 2-2zm-22-13c4.963 0 9 4.038 9 9s-4.037 9-9 9-9-4.038-9-9 4.037-9 9-9z"/><path d="m17 33h-2.405c-.6-1.181-1.814-2-3.227-2h-2.736c-2.003 0-3.632 1.629-3.632 3.632 0 .337.047.673.14.997l1.762 6.169-3.902 5.202c-1.29 1.721-2 3.852-2 6 0 5.514 4.486 10 10 10h2c1.422 0 2.774-.303 4-.841v.841h10v-38h-10zm-8.368 0h2.736c.9 0 1.632.732 1.632 1.632v2.368h2v-2h2.172c1.008 0 1.828.82 1.828 1.828 0 .481-.195.953-.535 1.293l-2.879 2.879h-6.831l-1.692-5.921c-.042-.145-.063-.296-.063-.447 0-.9.732-1.632 1.632-1.632zm2.368 28c-4.411 0-8-3.589-8-8 0-1.719.568-3.424 1.6-4.801l3.9-5.199h7l3.9 5.199c1.032 1.377 1.6 3.082 1.6 4.801 0 4.411-3.589 8-8 8zm14-34v34h-6v-.019c2.423-1.827 4-4.719 4-7.981 0-2.148-.71-4.279-2-6l-3.68-4.906 2.559-2.559c.723-.722 1.121-1.684 1.121-2.707 0-1.445-.815-2.691-2-3.342v-6.486z"/><path d="m29 63h10v-32h-10zm2-30h6v28h-6z"/><path d="m41 63h10v-37h-10zm2-35h6v33h-6z"/><path d="m53 63h10v-28h-10zm2-26h6v24h-6z"/></g></g></svg>